<?xml version="1.0" encoding="UTF-8" standalone="no"?>
<!DOCTYPE svg PUBLIC "-//W3C//DTD SVG 1.1//EN"
 "http://www.w3.org/Graphics/SVG/1.1/DTD/svg11.dtd">
<!-- Generated by graphviz version 2.43.0 (0)
 -->
<!-- Title: CollegeInsider_MVP_ERD_SVG Pages: 1 -->
<svg width="963pt" height="405pt"
 viewBox="0.00 0.00 963.00 405.00" xmlns="http://www.w3.org/2000/svg" xmlns:xlink="http://www.w3.org/1999/xlink">
<g id="graph0" class="graph" transform="scale(1 1) rotate(0) translate(4 401)">
<title>CollegeInsider_MVP_ERD_SVG</title>
<polygon fill="white" stroke="transparent" points="-4,4 -4,-401 959,-401 959,4 -4,4"/>
<!-- institution -->
<g id="node1" class="node">
<title>institution</title>
<polygon fill="none" stroke="black" points="0,-239.5 0,-322.5 225,-322.5 225,-239.5 0,-239.5"/>
<text text-anchor="middle" x="45.5" y="-277.3" font-family="Times,serif" font-size="14.00">institution</text>
<polyline fill="none" stroke="black" points="91,-239.5 91,-322.5 "/>
<text text-anchor="start" x="99" y="-307.3" font-family="Times,serif" font-size="14.00">id (PK)</text>
<text text-anchor="start" x="99" y="-292.3" font-family="Times,serif" font-size="14.00">name (UNIQUE)</text>
<text text-anchor="start" x="99" y="-277.3" font-family="Times,serif" font-size="14.00">aka</text>
<text text-anchor="start" x="99" y="-262.3" font-family="Times,serif" font-size="14.00">website</text>
<text text-anchor="start" x="99" y="-247.3" font-family="Times,serif" font-size="14.00">country_code</text>
</g>
<!-- campus -->
<g id="node2" class="node">
<title>campus</title>
<polygon fill="none" stroke="black" points="311.5,-313.5 311.5,-396.5 528.5,-396.5 528.5,-313.5 311.5,-313.5"/>
<text text-anchor="middle" x="347" y="-351.3" font-family="Times,serif" font-size="14.00">campus</text>
<polyline fill="none" stroke="black" points="382.5,-313.5 382.5,-396.5 "/>
<text text-anchor="start" x="390.5" y="-381.3" font-family="Times,serif" font-size="14.00">id (PK)</text>
<text text-anchor="start" x="390.5" y="-366.3" font-family="Times,serif" font-size="14.00">institution_id (FK)</text>
<text text-anchor="start" x="390.5" y="-351.3" font-family="Times,serif" font-size="14.00">name</text>
<text text-anchor="start" x="390.5" y="-336.3" font-family="Times,serif" font-size="14.00">address</text>
<text text-anchor="start" x="390.5" y="-321.3" font-family="Times,serif" font-size="14.00">eircode</text>
</g>
<!-- institution&#45;&gt;campus -->
<g id="edge1" class="edge">
<title>institution&#45;&gt;campus</title>
<path fill="none" stroke="black" d="M225.09,-308.03C249.92,-314.04 276.31,-320.44 301.38,-326.51"/>
<polygon fill="black" stroke="black" points="300.74,-329.95 311.28,-328.91 302.38,-323.15 300.74,-329.95"/>
</g>
<!-- programme -->
<g id="node3" class="node">
<title>programme</title>
<polygon fill="none" stroke="black" points="261,-121.5 261,-294.5 579,-294.5 579,-121.5 261,-121.5"/>
<text text-anchor="middle" x="311" y="-204.3" font-family="Times,serif" font-size="14.00">programme</text>
<polyline fill="none" stroke="black" points="361,-121.5 361,-294.5 "/>
<text text-anchor="start" x="369" y="-279.3" font-family="Times,serif" font-size="14.00">id (PK)</text>
<text text-anchor="start" x="369" y="-264.3" font-family="Times,serif" font-size="14.00">institution_id (FK)</text>
<text text-anchor="start" x="369" y="-249.3" font-family="Times,serif" font-size="14.00">cao_code (UNIQUE per inst)</text>
<text text-anchor="start" x="369" y="-234.3" font-family="Times,serif" font-size="14.00">title</text>
<text text-anchor="start" x="369" y="-219.3" font-family="Times,serif" font-size="14.00">nfq_level</text>
<text text-anchor="start" x="369" y="-204.3" font-family="Times,serif" font-size="14.00">award</text>
<text text-anchor="start" x="369" y="-189.3" font-family="Times,serif" font-size="14.00">duration_years</text>
<text text-anchor="start" x="369" y="-174.3" font-family="Times,serif" font-size="14.00">delivery_mode</text>
<text text-anchor="start" x="369" y="-159.3" font-family="Times,serif" font-size="14.00">restricted</text>
<text text-anchor="start" x="369" y="-144.3" font-family="Times,serif" font-size="14.00">description</text>
<text text-anchor="start" x="369" y="-129.3" font-family="Times,serif" font-size="14.00">last_verified_at</text>
</g>
<!-- institution&#45;&gt;programme -->
<g id="edge2" class="edge">
<title>institution&#45;&gt;programme</title>
<path fill="none" stroke="black" d="M225.09,-254.34C233.57,-252.31 242.24,-250.24 250.97,-248.15"/>
<polygon fill="black" stroke="black" points="251.94,-251.52 260.86,-245.79 250.32,-244.71 251.94,-251.52"/>
</g>
<!-- programme_option -->
<g id="node4" class="node">
<title>programme_option</title>
<polygon fill="none" stroke="black" points="631.5,-255 631.5,-323 938.5,-323 938.5,-255 631.5,-255"/>
<text text-anchor="middle" x="707.5" y="-285.3" font-family="Times,serif" font-size="14.00">programme_option</text>
<polyline fill="none" stroke="black" points="783.5,-255 783.5,-323 "/>
<text text-anchor="start" x="791.5" y="-307.8" font-family="Times,serif" font-size="14.00">id (PK)</text>
<text text-anchor="start" x="791.5" y="-292.8" font-family="Times,serif" font-size="14.00">programme_id (FK)</text>
<text text-anchor="start" x="791.5" y="-277.8" font-family="Times,serif" font-size="14.00">title</text>
<text text-anchor="start" x="791.5" y="-262.8" font-family="Times,serif" font-size="14.00">notes</text>
</g>
<!-- programme&#45;&gt;programme_option -->
<g id="edge3" class="edge">
<title>programme&#45;&gt;programme_option</title>
<path fill="none" stroke="black" d="M579.16,-243.29C593.29,-246.44 607.61,-249.64 621.77,-252.8"/>
<polygon fill="black" stroke="black" points="621.02,-256.22 631.54,-254.98 622.54,-249.39 621.02,-256.22"/>
</g>
<!-- admission_requirement -->
<g id="node5" class="node">
<title>admission_requirement</title>
<polygon fill="none" stroke="black" points="615,-168 615,-236 955,-236 955,-168 615,-168"/>
<text text-anchor="middle" x="707.5" y="-198.3" font-family="Times,serif" font-size="14.00">admission_requirement</text>
<polyline fill="none" stroke="black" points="800,-168 800,-236 "/>
<text text-anchor="start" x="808" y="-220.8" font-family="Times,serif" font-size="14.00">id (PK)</text>
<text text-anchor="start" x="808" y="-205.8" font-family="Times,serif" font-size="14.00">programme_id (FK)</text>
<text text-anchor="start" x="808" y="-190.8" font-family="Times,serif" font-size="14.00">route</text>
<text text-anchor="start" x="808" y="-175.8" font-family="Times,serif" font-size="14.00">text_summary</text>
</g>
<!-- programme&#45;&gt;admission_requirement -->
<g id="edge4" class="edge">
<title>programme&#45;&gt;admission_requirement</title>
<path fill="none" stroke="black" d="M579.16,-205.39C587.68,-205.25 596.26,-205.1 604.84,-204.96"/>
<polygon fill="black" stroke="black" points="604.96,-208.46 614.9,-204.8 604.84,-201.46 604.96,-208.46"/>
</g>
<!-- points_history -->
<g id="node6" class="node">
<title>points_history</title>
<polygon fill="none" stroke="black" points="641,-0.5 641,-143.5 929,-143.5 929,-0.5 641,-0.5"/>
<text text-anchor="middle" x="700" y="-68.3" font-family="Times,serif" font-size="14.00">points_history</text>
<polyline fill="none" stroke="black" points="759,-0.5 759,-143.5 "/>
<text text-anchor="start" x="767" y="-128.3" font-family="Times,serif" font-size="14.00">id (PK)</text>
<text text-anchor="start" x="767" y="-113.3" font-family="Times,serif" font-size="14.00">programme_id (FK)</text>
<text text-anchor="start" x="767" y="-98.3" font-family="Times,serif" font-size="14.00">year</text>
<text text-anchor="start" x="767" y="-83.3" font-family="Times,serif" font-size="14.00">round</text>
<text text-anchor="start" x="767" y="-68.3" font-family="Times,serif" font-size="14.00">min_points</text>
<text text-anchor="start" x="767" y="-53.3" font-family="Times,serif" font-size="14.00">median_points</text>
<text text-anchor="start" x="767" y="-38.3" font-family="Times,serif" font-size="14.00">places_offered</text>
<text text-anchor="start" x="767" y="-23.3" font-family="Times,serif" font-size="14.00">applicants_first_prefs</text>
<text text-anchor="start" x="767" y="-8.3" font-family="Times,serif" font-size="14.00">data_source_id (FK)</text>
</g>
<!-- programme&#45;&gt;points_history -->
<g id="edge5" class="edge">
<title>programme&#45;&gt;points_history</title>
<path fill="none" stroke="black" d="M579.16,-148.74C596.49,-142.25 614.11,-135.65 631.37,-129.18"/>
<polygon fill="black" stroke="black" points="632.78,-132.39 640.92,-125.61 630.33,-125.84 632.78,-132.39"/>
</g>
<!-- data_source -->
<g id="node7" class="node">
<title>data_source</title>
<polygon fill="none" stroke="black" points="318,-19.5 318,-102.5 522,-102.5 522,-19.5 318,-19.5"/>
<text text-anchor="middle" x="369" y="-57.3" font-family="Times,serif" font-size="14.00">data_source</text>
<polyline fill="none" stroke="black" points="420,-19.5 420,-102.5 "/>
<text text-anchor="start" x="428" y="-87.3" font-family="Times,serif" font-size="14.00">id (PK)</text>
<text text-anchor="start" x="428" y="-72.3" font-family="Times,serif" font-size="14.00">name</text>
<text text-anchor="start" x="428" y="-57.3" font-family="Times,serif" font-size="14.00">source_type</text>
<text text-anchor="start" x="428" y="-42.3" font-family="Times,serif" font-size="14.00">url</text>
<text text-anchor="start" x="428" y="-27.3" font-family="Times,serif" font-size="14.00">collected_at</text>
</g>
<!-- data_source&#45;&gt;points_history -->
<g id="edge6" class="edge">
<title>data_source&#45;&gt;points_history</title>
<path fill="none" stroke="black" d="M522.12,-64.06C555.67,-65.08 593.82,-66.24 630.42,-67.35"/>
<polygon fill="black" stroke="black" points="630.6,-70.85 640.7,-67.66 630.81,-63.86 630.6,-70.85"/>
</g>
</g>
</svg>
