<?xml version="1.0" encoding="UTF-8" standalone="no"?>
<!DOCTYPE svg PUBLIC "-//W3C//DTD SVG 1.1//EN"
 "http://www.w3.org/Graphics/SVG/1.1/DTD/svg11.dtd">
<!-- Generated by graphviz version 2.43.0 (0)
 -->
<!-- Title: CollegeInsider_Simplified_MVP_ERD_SVG Pages: 1 -->
<svg width="1035pt" height="182pt"
 viewBox="0.00 0.00 1035.00 182.00" xmlns="http://www.w3.org/2000/svg" xmlns:xlink="http://www.w3.org/1999/xlink">
<g id="graph0" class="graph" transform="scale(1 1) rotate(0) translate(4 178)">
<title>CollegeInsider_Simplified_MVP_ERD_SVG</title>
<polygon fill="white" stroke="transparent" points="-4,4 -4,-178 1031,-178 1031,4 -4,4"/>
<!-- institution -->
<g id="node1" class="node">
<title>institution</title>
<polygon fill="none" stroke="black" points="0,-45.5 0,-128.5 225,-128.5 225,-45.5 0,-45.5"/>
<text text-anchor="middle" x="45.5" y="-83.3" font-family="Times,serif" font-size="14.00">institution</text>
<polyline fill="none" stroke="black" points="91,-45.5 91,-128.5 "/>
<text text-anchor="start" x="99" y="-113.3" font-family="Times,serif" font-size="14.00">id (PK)</text>
<text text-anchor="start" x="99" y="-98.3" font-family="Times,serif" font-size="14.00">name (UNIQUE)</text>
<text text-anchor="start" x="99" y="-83.3" font-family="Times,serif" font-size="14.00">aka</text>
<text text-anchor="start" x="99" y="-68.3" font-family="Times,serif" font-size="14.00">website</text>
<text text-anchor="start" x="99" y="-53.3" font-family="Times,serif" font-size="14.00">country_code</text>
</g>
<!-- programme -->
<g id="node2" class="node">
<title>programme</title>
<polygon fill="none" stroke="black" points="261,-0.5 261,-173.5 627,-173.5 627,-0.5 261,-0.5"/>
<text text-anchor="middle" x="311" y="-83.3" font-family="Times,serif" font-size="14.00">programme</text>
<polyline fill="none" stroke="black" points="361,-0.5 361,-173.5 "/>
<text text-anchor="start" x="369" y="-158.3" font-family="Times,serif" font-size="14.00">id (PK)</text>
<text text-anchor="start" x="369" y="-143.3" font-family="Times,serif" font-size="14.00">institution_id (FK)</text>
<text text-anchor="start" x="369" y="-128.3" font-family="Times,serif" font-size="14.00">cao_code (UNIQUE per institution)</text>
<text text-anchor="start" x="369" y="-113.3" font-family="Times,serif" font-size="14.00">title</text>
<text text-anchor="start" x="369" y="-98.3" font-family="Times,serif" font-size="14.00">nfq_level</text>
<text text-anchor="start" x="369" y="-83.3" font-family="Times,serif" font-size="14.00">award</text>
<text text-anchor="start" x="369" y="-68.3" font-family="Times,serif" font-size="14.00">duration_years</text>
<text text-anchor="start" x="369" y="-53.3" font-family="Times,serif" font-size="14.00">delivery_mode</text>
<text text-anchor="start" x="369" y="-38.3" font-family="Times,serif" font-size="14.00">restricted</text>
<text text-anchor="start" x="369" y="-23.3" font-family="Times,serif" font-size="14.00">description</text>
<text text-anchor="start" x="369" y="-8.3" font-family="Times,serif" font-size="14.00">last_verified_at</text>
</g>
<!-- institution&#45;&gt;programme -->
<g id="edge1" class="edge">
<title>institution&#45;&gt;programme</title>
<path fill="none" stroke="black" d="M225.05,-87C233.44,-87 242.03,-87 250.73,-87"/>
<polygon fill="black" stroke="black" points="250.99,-90.5 260.99,-87 250.99,-83.5 250.99,-90.5"/>
</g>
<!-- programme_option -->
<g id="node3" class="node">
<title>programme_option</title>
<polygon fill="none" stroke="black" points="691.5,-97 691.5,-165 998.5,-165 998.5,-97 691.5,-97"/>
<text text-anchor="middle" x="767.5" y="-127.3" font-family="Times,serif" font-size="14.00">programme_option</text>
<polyline fill="none" stroke="black" points="843.5,-97 843.5,-165 "/>
<text text-anchor="start" x="851.5" y="-149.8" font-family="Times,serif" font-size="14.00">id (PK)</text>
<text text-anchor="start" x="851.5" y="-134.8" font-family="Times,serif" font-size="14.00">programme_id (FK)</text>
<text text-anchor="start" x="851.5" y="-119.8" font-family="Times,serif" font-size="14.00">title</text>
<text text-anchor="start" x="851.5" y="-104.8" font-family="Times,serif" font-size="14.00">notes</text>
</g>
<!-- programme&#45;&gt;programme_option -->
<g id="edge2" class="edge">
<title>programme&#45;&gt;programme_option</title>
<path fill="none" stroke="black" d="M627.28,-107.1C645.22,-109.08 663.34,-111.08 681.07,-113.03"/>
<polygon fill="black" stroke="black" points="681.14,-116.56 691.46,-114.18 681.9,-109.6 681.14,-116.56"/>
</g>
<!-- admission_requirement -->
<g id="node4" class="node">
<title>admission_requirement</title>
<polygon fill="none" stroke="black" points="663,-10 663,-78 1027,-78 1027,-10 663,-10"/>
<text text-anchor="middle" x="755.5" y="-40.3" font-family="Times,serif" font-size="14.00">admission_requirement</text>
<polyline fill="none" stroke="black" points="848,-10 848,-78 "/>
<text text-anchor="start" x="856" y="-62.8" font-family="Times,serif" font-size="14.00">id (PK)</text>
<text text-anchor="start" x="856" y="-47.8" font-family="Times,serif" font-size="14.00">programme_id (FK)</text>
<text text-anchor="start" x="856" y="-32.8" font-family="Times,serif" font-size="14.00">route (LC/QQI/Mature)</text>
<text text-anchor="start" x="856" y="-17.8" font-family="Times,serif" font-size="14.00">text_summary</text>
</g>
<!-- programme&#45;&gt;admission_requirement -->
<g id="edge3" class="edge">
<title>programme&#45;&gt;admission_requirement</title>
<path fill="none" stroke="black" d="M627.28,-67.36C635.76,-66.44 644.29,-65.52 652.8,-64.61"/>
<polygon fill="black" stroke="black" points="653.21,-68.08 662.78,-63.53 652.46,-61.12 653.21,-68.08"/>
</g>
</g>
</svg>
